<svg xmlns="http://www.w3.org/2000/svg" viewBox="0 0 1200 750" role="img" aria-label="Staging UAT 2018 Subaru Impreza illustration">
  <defs><linearGradient id="bg" x1="0" y1="0" x2="1" y2="1"><stop stop-color="#111827"/><stop offset="1" stop-color="#233047"/></linearGradient><linearGradient id="car" x1="0" y1="0" x2="1" y2="1"><stop stop-color="#f8fafc"/><stop offset="1" stop-color="#cbd5e1"/></linearGradient></defs>
  <rect width="1200" height="750" fill="url(#bg)"/><circle cx="1030" cy="120" r="190" fill="#f97316" opacity=".14"/><path d="M215 476c34-97 105-165 204-195 118-36 279-34 390 1 70 22 131 78 163 145l78 24c32 10 54 40 54 73v30H113v-34c0-32 21-59 52-68l50-14z" fill="url(#car)"/><path d="M408 306c90-27 235-27 325-1 51 15 95 53 128 104H330c20-46 47-80 78-103z" fill="#2f4159"/><path d="M574 302v107" stroke="#94a3b8" stroke-width="8"/><circle cx="348" cy="553" r="74" fill="#0b1220"/><circle cx="348" cy="553" r="38" fill="#64748b"/><circle cx="887" cy="553" r="74" fill="#0b1220"/><circle cx="887" cy="553" r="38" fill="#64748b"/><rect x="934" y="454" width="108" height="26" rx="12" fill="#f97316"/><text x="70" y="100" fill="#fff" font-family="Arial,sans-serif" font-size="46" font-weight="700">2018 Subaru Impreza · 2.0i-S Eyesight</text><text x="72" y="150" fill="#fdba74" font-family="Arial,sans-serif" font-size="25" font-weight="700">CARUP STAGING UAT · SAVED MARKETPLACE VEHICLE</text><text x="72" y="690" fill="#cbd5e1" font-family="Arial,sans-serif" font-size="23">Crystal White Pearl · 55,700 km · USD 12,750 · Published</text>
</svg>